<svg id="Слой_1" data-name="Слой 1" xmlns="http://www.w3.org/2000/svg" viewBox="0 0 24 24"><defs><style>.cls-1{fill:#fff;}.cls-2{fill:none;}</style></defs><title>clear</title><path class="cls-1" d="M18.3,5.71h0a1,1,0,0,0-1.41,0L12.7,9.89a1,1,0,0,1-1.41,0L7.11,5.7a1,1,0,0,0-1.41,0h0a1,1,0,0,0,0,1.41L9.89,11.3a1,1,0,0,1,0,1.41L5.7,16.89a1,1,0,0,0,0,1.41h0a1,1,0,0,0,1.41,0l4.18-4.18a1,1,0,0,1,1.41,0l4.18,4.18a1,1,0,0,0,1.41,0h0a1,1,0,0,0,0-1.41L14.11,12.7a1,1,0,0,1,0-1.41L18.3,7.11A1,1,0,0,0,18.3,5.71Z"/><path class="cls-2" d="M0,0H24V24H0V0Z"/></svg>